<svg xmlns="http://www.w3.org/2000/svg" width="243.621" height="64.745" viewBox="0 0 243.621 64.745">
  <g id="Group_1658" data-name="Group 1658" transform="translate(-45.729 -22)">
    <text id="data" transform="translate(116.158 68)" fill="#191919" font-size="36" font-family="Roboto-Regular, Roboto"><tspan x="0" y="0">data</tspan></text>
    <text id="evolve" transform="translate(191.35 68)" fill="#191919" font-size="36" font-family="Roboto-Thin, Roboto" font-weight="200"><tspan x="0" y="0">evolve</tspan></text>
    <g id="Group_2" data-name="Group 2" transform="translate(37.761 22)">
      <path id="Rectangle_47" data-name="Rectangle 47" d="M0,2.334A1.749,1.749,0,0,1,1.713.626L31.846,0A1.6,1.6,0,0,1,33.481,1.64h0a1.749,1.749,0,0,1-1.713,1.709L1.636,3.973A1.6,1.6,0,0,1,0,2.334Z" transform="translate(53.61 33.905) rotate(-169)" fill="#a8397a"/>
      <path id="Rectangle_47-2" data-name="Rectangle 47" d="M.013,3.34a1.787,1.787,0,0,1,1.68-1.679L30.166,0a1.574,1.574,0,0,1,1.663,1.663l-.01.179a1.787,1.787,0,0,1-1.68,1.679L1.666,5.182A1.574,1.574,0,0,1,0,3.519Z" transform="matrix(-0.719, -0.695, 0.695, -0.719, 55.905, 33.345)" fill="#2e4881"/>
      <rect id="Rectangle_47_Copy_2" data-name="Rectangle 47 Copy 2" width="20.081" height="3.333" rx="1.666" transform="translate(54.19 33.386) rotate(180)" fill="#eb4853"/>
      <path id="Rectangle_47_Copy_2-2" data-name="Rectangle 47 Copy 2" d="M.014,2.463A1.787,1.787,0,0,1,1.7.779L15.21,0A1.6,1.6,0,0,1,16.9,1.694l-.011.2A1.787,1.787,0,0,1,15.211,3.58L1.7,4.357A1.6,1.6,0,0,1,0,2.665Z" transform="matrix(-0.616, -0.788, 0.788, -0.616, 56.934, 32.065)" fill="#318bba"/>
      <path id="Rectangle_47-3" data-name="Rectangle 47" d="M0,1.643A1.556,1.556,0,0,1,1.64,0l27.326,1.47a1.787,1.787,0,0,1,1.688,1.684l.008.136a1.556,1.556,0,0,1-1.637,1.641L1.7,3.464A1.787,1.787,0,0,1,.01,1.78Z" transform="matrix(-0.819, 0.574, -0.574, -0.819, 59.778, 36.434)" fill="#f28430"/>
      <path id="Rectangle_47-4" data-name="Rectangle 47" d="M0,1.694A1.6,1.6,0,0,1,1.7,0l15.318.88A1.787,1.787,0,0,1,18.7,2.567l.011.2a1.6,1.6,0,0,1-1.694,1.692L1.7,3.58A1.787,1.787,0,0,1,.014,1.9Z" transform="matrix(-0.616, 0.788, -0.788, -0.616, 60.804, 36.597)" fill="#f7b13e"/>
      <path id="Rectangle_47_Copy" data-name="Rectangle 47 Copy" d="M0,1.694A1.6,1.6,0,0,1,1.7,0L8.528.4a1.787,1.787,0,0,1,1.681,1.684l.011.2A1.6,1.6,0,0,1,8.526,3.973L1.7,3.58A1.787,1.787,0,0,1,.014,1.9Z" transform="matrix(-0.616, 0.788, -0.788, -0.616, 42.967, 56.688)" fill="#f7b13e"/>
      <path id="Rectangle_47_Copy-2" data-name="Rectangle 47 Copy" d="M0,1.631A1.564,1.564,0,0,1,1.625,0l15.22.592A1.787,1.787,0,0,1,18.561,2.3l0,.05a1.564,1.564,0,0,1-1.624,1.629L1.719,3.39A1.787,1.787,0,0,1,0,1.68Z" transform="translate(37.257 44.288) rotate(158)" fill="#ef6330"/>
      <path id="Rectangle_47_Copy-3" data-name="Rectangle 47 Copy" d="M0,1.635A1.589,1.589,0,0,1,1.631,0L17.005.4a1.774,1.774,0,0,1,1.727,1.722h0A1.589,1.589,0,0,1,17.1,3.758l-15.374-.4A1.774,1.774,0,0,1,0,1.635Z" transform="translate(47.488 37.734) rotate(166)" fill="#ed4634"/>
      <rect id="Rectangle_47_Copy-4" data-name="Rectangle 47 Copy" width="18.853" height="3.333" rx="1.666" transform="translate(32.223 37.21) rotate(180)" fill="#ec4854"/>
      <path id="Rectangle_47_Copy_3" data-name="Rectangle 47 Copy 3" d="M0,1.641A1.607,1.607,0,0,1,1.638,0L10.4.166A1.741,1.741,0,0,1,12.1,1.87h0a1.607,1.607,0,0,1-1.637,1.641L1.708,3.345A1.741,1.741,0,0,1,0,1.641Z" transform="translate(20.563 44.002) rotate(166)" fill="#ed4637"/>
      <path id="Rectangle_47-5" data-name="Rectangle 47" d="M.006,2.937a1.787,1.787,0,0,1,1.7-1.7L28.809,0a1.556,1.556,0,0,1,1.626,1.631l0,.086a1.787,1.787,0,0,1-1.7,1.7L1.628,4.653A1.556,1.556,0,0,1,0,3.022Z" transform="matrix(-0.891, -0.454, 0.454, -0.891, 43.798, 29.311)" fill="#6f3895"/>
      <rect id="Rectangle_47_Copy-5" data-name="Rectangle 47 Copy" width="9.198" height="3.333" rx="1.666" transform="translate(17.973 27.056) rotate(-170)" fill="#a93979"/>
      <path id="Rectangle_47_Copy_4" data-name="Rectangle 47 Copy 4" d="M.012,2.206A1.787,1.787,0,0,1,1.694.526L10.89,0a1.564,1.564,0,0,1,1.65,1.652l-.009.162A1.787,1.787,0,0,1,10.848,3.5l-9.2.523A1.564,1.564,0,0,1,0,2.368Z" transform="translate(29.002 11.144) rotate(-140)" fill="#2077c0"/>
      <path id="Rectangle_47_Copy_5" data-name="Rectangle 47 Copy 5" d="M.014,2.186A1.787,1.787,0,0,1,1.7.5l8.79-.5a1.614,1.614,0,0,1,1.7,1.7l-.011.205A1.787,1.787,0,0,1,10.5,3.594l-8.79.5A1.614,1.614,0,0,1,0,2.392Z" transform="matrix(-0.588, -0.809, 0.809, -0.588, 43.483, 14.089)" fill="#348db5"/>
    </g>
    <rect id="Rectangle_468" data-name="Rectangle 468" width="2" height="56" rx="1" transform="translate(106 26)" fill="#343434"/>
  </g>
</svg>
